<svg width="18" height="18" viewBox="0 0 18 18" fill="none" xmlns="http://www.w3.org/2000/svg">
<path d="M12.6984 8.75039C13.2047 8.02617 13.5 7.14375 13.5 6.1875C13.5 3.70195 11.4855 1.6875 9 1.6875C6.51445 1.6875 4.5 3.70195 4.5 6.1875C4.5 7.14375 4.79531 8.02617 5.30156 8.75039C5.43164 8.93672 5.58633 9.14766 5.75156 9.37266C6.20508 9.99492 6.74648 10.7402 7.15078 11.475C7.51641 12.143 7.70273 12.8391 7.79414 13.4965H6.08203C6.00469 13.0746 5.87461 12.6633 5.66719 12.2836C5.31914 11.6508 4.88672 11.0566 4.4543 10.4625C4.27148 10.2129 4.08867 9.96328 3.91289 9.71016C3.22031 8.71523 2.8125 7.49883 2.8125 6.1875C2.8125 2.77031 5.58281 0 9 0C12.4172 0 15.1875 2.77031 15.1875 6.1875C15.1875 7.49883 14.7797 8.71523 14.0836 9.71367C13.9078 9.9668 13.725 10.2164 13.5422 10.466C13.1098 11.0566 12.6773 11.6508 12.3293 12.2871C12.1219 12.6668 11.9918 13.0781 11.9145 13.5H10.2094C10.3008 12.8426 10.4871 12.143 10.8527 11.4785C11.257 10.7438 11.7984 9.99844 12.252 9.37617C12.4172 9.15117 12.5684 8.94023 12.6984 8.75391V8.75039ZM9 4.5C8.06836 4.5 7.3125 5.25586 7.3125 6.1875C7.3125 6.49688 7.05938 6.75 6.75 6.75C6.44062 6.75 6.1875 6.49688 6.1875 6.1875C6.1875 4.63359 7.44609 3.375 9 3.375C9.30938 3.375 9.5625 3.62812 9.5625 3.9375C9.5625 4.24688 9.30938 4.5 9 4.5ZM9 18C7.44609 18 6.1875 16.7414 6.1875 15.1875V14.625H11.8125V15.1875C11.8125 16.7414 10.5539 18 9 18Z" fill="#274C90"/>
</svg>
