<svg width="18" height="18" viewBox="0 0 18 18" fill="none" xmlns="http://www.w3.org/2000/svg">
<g clip-path="url(#clip0_7_20)">
<path d="M6.72539 0.189877C6.99961 -0.0667634 7.425 -0.0632478 7.69922 0.193393C8.66953 1.10394 9.58008 2.0848 10.4309 3.14652C10.8176 2.64027 11.257 2.08831 11.7316 1.63831C12.0094 1.37816 12.4383 1.37816 12.716 1.64183C13.9324 2.80199 14.9625 4.3348 15.6867 5.79027C16.4004 7.22464 16.875 8.69066 16.875 9.72425C16.875 14.2102 13.3664 18 9 18C4.58438 18 1.125 14.2067 1.125 9.72074C1.125 8.37074 1.75078 6.72191 2.72109 5.09066C3.70195 3.4348 5.08711 1.70863 6.72539 0.189877ZM9.05977 14.625C9.94922 14.625 10.7367 14.3789 11.4785 13.8868C12.9586 12.8532 13.3559 10.786 12.4664 9.16175C12.3082 8.84535 11.9039 8.82425 11.6754 9.09144L10.7895 10.1215C10.5574 10.3887 10.1391 10.3817 9.92109 10.1039C9.34102 9.36566 8.30391 8.0473 7.71328 7.29847C7.4918 7.01722 7.06992 7.01371 6.84492 7.29496C5.65664 8.7891 5.05898 9.73128 5.05898 10.7895C5.0625 13.1977 6.84141 14.625 9.05977 14.625Z" fill="#FF4033"/>
</g>
<defs>
<clipPath id="clip0_7_20">
<rect width="18" height="18" fill="white"/>
</clipPath>
</defs>
</svg>
