<svg width="18" height="18" viewBox="0 0 18 18" fill="none" xmlns="http://www.w3.org/2000/svg">
<g clip-path="url(#clip0_7_22)">
<path d="M13.4086 1.56792C13.616 1.08628 13.4613 0.52378 13.0359 0.214405C12.6105 -0.09497 12.0305 -0.066845 11.6332 0.277686L2.6332 8.15269C2.28163 8.46206 2.15507 8.95776 2.3203 9.3937C2.48554 9.82964 2.90741 10.125 3.37499 10.125H7.29491L4.5914 16.432C4.38398 16.9136 4.53866 17.4761 4.96405 17.7855C5.38945 18.0949 5.96952 18.0667 6.36679 17.7222L15.3668 9.84722C15.7184 9.53784 15.8449 9.04214 15.6797 8.6062C15.5144 8.17026 15.0961 7.87847 14.625 7.87847H10.7051L13.4086 1.56792Z" fill="#F7BE68"/>
</g>
<defs>
<clipPath id="clip0_7_22">
<rect width="18" height="18" fill="white"/>
</clipPath>
</defs>
</svg>
