<svg width="24" height="24" viewBox="0 0 24 24" fill="none" xmlns="http://www.w3.org/2000/svg">
<path d="M19 12L18.99 12M12 12L11.99 12M5 12L4.99 12M18 12C18 11.4477 18.4477 11 19 11C19.5523 11 20 11.4477 20 12C20 12.5523 19.5523 13 19 13C18.4477 13 18 12.5523 18 12ZM11 12C11 11.4477 11.4477 11 12 11C12.5523 11 13 11.4477 13 12C13 12.5523 12.5523 13 12 13C11.4477 13 11 12.5523 11 12ZM4 12C4 11.4477 4.44772 11 5 11C5.55228 11 6 11.4477 6 12C6 12.5523 5.55228 13 5 13C4.44772 13 4 12.5523 4 12Z" stroke="black" stroke-linecap="round" stroke-linejoin="round"/>
</svg>
