<svg width="20" height="20" viewBox="0 0 20 20" fill="none" xmlns="http://www.w3.org/2000/svg">
<path d="M17.524 11.7417C17.4752 11.5833 17.3652 11.4505 17.2184 11.3729C17.0716 11.2953 16.9004 11.2793 16.7416 11.3285C14.4644 11.9545 12.0268 11.3089 10.3576 9.63846C8.6888 7.96806 8.0452 5.52966 8.6732 3.25326C8.7392 3.03286 8.6788 2.79406 8.516 2.63126C8.3536 2.46886 8.1148 2.40886 7.8944 2.47486C4.2636 3.49126 1.8764 6.95566 2.22 10.7105C2.5632 14.4653 5.5388 17.4393 9.294 17.7805C13.0488 18.1217 16.512 15.7329 17.5264 12.1013C17.5608 11.9841 17.56 11.8589 17.524 11.7417Z" fill="#202125"/>
</svg>
