<svg width="20" height="20" viewBox="0 0 20 20" fill="none" xmlns="http://www.w3.org/2000/svg">
<g clip-path="url(#clip0_15_27)">
<path d="M3.39083 10.8333H0V9.16667H3.39083C3.35667 9.44 3.33333 9.7175 3.33333 10C3.33333 10.2825 3.35667 10.56 3.39083 10.8333ZM5.91917 4.74L3.51833 2.33917L2.34 3.5175L4.74083 5.91833C5.08333 5.4775 5.47833 5.0825 5.91917 4.74ZM15.26 5.91833L17.6608 3.5175L16.4825 2.33917L14.0817 4.74C14.5217 5.0825 14.9167 5.47833 15.26 5.91833ZM10 3.33333C10.2825 3.33333 10.56 3.35667 10.8333 3.39083V0H9.16667V3.39083C9.44 3.35667 9.7175 3.33333 10 3.33333ZM10 16.6667C9.7175 16.6667 9.44 16.6433 9.16667 16.6092V20H10.8333V16.6092C10.56 16.6433 10.2825 16.6667 10 16.6667ZM16.6092 9.16667C16.6433 9.44 16.6667 9.7175 16.6667 10C16.6667 10.2825 16.6433 10.56 16.6092 10.8333H20V9.16667H16.6092ZM14.0817 15.26L16.4817 17.66L17.6608 16.4817L15.2608 14.0817C14.9175 14.5217 14.5225 14.9167 14.0817 15.26ZM4.74 14.0808L2.34 16.4808L3.51833 17.6592L5.91833 15.2592C5.47833 14.9167 5.0825 14.5217 4.74 14.0808ZM10 5C7.23833 5 5 7.23833 5 10C5 12.7617 7.23833 15 10 15C12.7617 15 15 12.7617 15 10C15 7.23833 12.7617 5 10 5Z" fill="white" fill-opacity="0.91"/>
</g>
<defs>
<clipPath id="clip0_15_27">
<rect width="20" height="20" fill="white"/>
</clipPath>
</defs>
</svg>
